# xmcd CD database file
#
# Track frame offsets:
#	150
#	22020
#	34065
#	49368
#	68298
#	99210
#	111560
#	127068
#	141858
#	157490
#	170640
#	179229
#	201753
#	217690
#	228710
#	241525
#	258045
#	274305
#	297245
#
# Disc length: 4143 seconds
#
# Revision: 0
# Processed by: cddbd v1.5.1PL0 Copyright (c) Steve Scherf et al.
# Submitted via: CDex 1.51
#
DISCID=22102d13
DTITLE=Bach Choir - Noël !
DYEAR=2001
DGENRE=Christmas
TTITLE0=O Come, All Ye Faithful
TTITLE1=Balulow
TTITLE2=Away in a Manger
TTITLE3=It Came Upon the Midnight Clear
TTITLE4=O Magnum Mysterium
TTITLE5=So Said The Angel
TTITLE6=The Lamb
TTITLE7=God Rest You Merry, Gentlemen
TTITLE8=Rocking
TTITLE9=No Small Wonder
TTITLE10=Jingle Bells
TTITLE11=In the Bleak Mid-Winter
TTITLE12=Of The Father's Love Begotten
TTITLE13=Still, Still, Still
TTITLE14=Long The Night
TTITLE15=O Little Town of Bethlehem
TTITLE16=Silent Night
TTITLE17=God Is With Us
TTITLE18=Hark! The Herald Angels Sing
EXTD=YEAR: 2001
EXTT0=
EXTT1=
EXTT2=
EXTT3=
EXTT4=
EXTT5=
EXTT6=
EXTT7=
EXTT8=
EXTT9=
EXTT10=
EXTT11=
EXTT12=
EXTT13=
EXTT14=
EXTT15=
EXTT16=
EXTT17=
EXTT18=
PLAYORDER=
